<svg width="89" height="22" viewBox="0 0 89 22" fill="none" xmlns="http://www.w3.org/2000/svg">
<path d="M5.64939 8.2539C4.87919 9.07489 4.2656 9.4854 3.8086 9.4854C3.3008 9.4854 2.848 9.1595 2.4502 8.5078C2.0609 7.8646 1.8662 7.1833 1.8662 6.4639C1.8662 5.74447 2.0355 5.11816 2.374 4.58496C2.721 4.04329 3.17809 3.5651 3.74509 3.15039C4.31219 2.73568 4.9596 2.37598 5.6875 2.07129C6.4238 1.7666 7.18549 1.51693 7.97269 1.32227C9.52989 0.924476 10.8376 0.725586 11.8955 0.725586C12.9619 0.725586 13.8548 0.772136 14.5742 0.865226C15.2936 0.949866 15.9876 1.09375 16.6562 1.29688C17.3249 1.5 17.9554 1.76237 18.5479 2.08398C19.1403 2.39714 19.6608 2.77799 20.1094 3.22656C21.0573 4.19987 21.5312 5.41439 21.5312 6.8701C21.5312 8.3766 21.0573 9.9212 20.1094 11.5039C19.1953 13.0358 18.0104 14.3053 16.5547 15.3125C15.0059 16.3704 13.4443 16.8994 11.8701 16.8994C11.0999 16.8994 10.4229 16.709 9.8389 16.3281C9.5596 16.1335 9.4157 15.9092 9.4072 15.6553C9.3988 15.3929 9.403 15.1559 9.4199 14.9443C9.4876 14.0726 9.6781 13.0485 9.9912 11.8721C10.609 12.126 11.2692 12.2529 11.9717 12.2529C12.6742 12.2529 13.2581 12.181 13.7236 12.0371C14.1891 11.8848 14.6546 11.6732 15.1201 11.4023C15.5941 11.1315 16.0469 10.8099 16.4785 10.4375C16.9186 10.0651 17.3079 9.6504 17.6465 9.1934C18.3828 8.1947 18.751 7.2467 18.751 6.3496C18.751 5.45247 18.5436 4.74577 18.1289 4.22949C17.7227 3.70475 17.1979 3.28581 16.5547 2.97266C15.3444 2.37174 13.8506 2.07129 12.0732 2.07129C10.5413 2.07129 8.9756 2.38021 7.376 2.99805C6.2588 3.43815 5.4548 3.99674 4.9639 4.67383C4.71 5.0293 4.583 5.41862 4.583 5.8418C4.583 6.7982 4.9385 7.6022 5.64939 8.2539ZM0.901398 20.1621C1.333 19.7051 1.8408 18.9137 2.4248 17.7881C3.0088 16.654 3.5081 15.6722 3.9229 14.8428C4.3376 14.0133 4.7692 13.1628 5.2178 12.291C5.6748 11.4193 6.1403 10.556 6.6143 9.70119C7.0967 8.83789 7.5833 8.0254 8.0742 7.2637C9.166 5.58789 10.1647 4.41146 11.0703 3.73438C11.1719 3.64974 11.2819 3.60742 11.4004 3.60742C11.5273 3.60742 11.6543 3.62858 11.7812 3.6709C12.0605 3.764 12.306 3.90788 12.5176 4.10254C11.4596 4.94889 10.3678 7.1706 9.2422 10.7676C8.9206 11.7747 8.6074 12.7819 8.3027 13.7891C7.998 14.7878 7.7018 15.7526 7.4141 16.6836C7.1348 17.6146 6.85549 18.4355 6.57619 19.1465C5.97529 20.7122 5.4378 21.4951 4.9639 21.4951C3.4658 21.4951 2.2936 21.1904 1.4473 20.5811C1.2357 20.4287 1.0537 20.2891 0.901398 20.1621ZM22.7754 21C20.9303 21 20.0078 19.9463 20.0078 17.8389C20.0078 16.0531 20.9938 13.7679 22.9658 10.9834C24.7008 8.5374 26.5798 6.4893 28.6025 4.83887C29.8805 3.79785 30.8242 3.27734 31.4336 3.27734C31.8822 3.27734 32.2799 3.4847 32.627 3.89941C33.0078 4.33952 33.1982 4.79232 33.1982 5.25781C33.1982 5.71484 33.0967 6.1296 32.8936 6.502C32.6989 6.8659 32.4323 7.234 32.0938 7.6064C31.7637 7.9788 31.3701 8.347 30.9131 8.7109C30.4645 9.0749 29.9863 9.4176 29.4785 9.7393C28.429 10.4163 27.4007 10.9242 26.3936 11.2627C26.0296 12.0667 25.6699 12.9596 25.3145 13.9414C27.0241 12.401 29.0173 11.3262 31.2939 10.7168C32.0218 10.5221 32.6354 10.4248 33.1348 10.4248C33.6341 10.4248 33.9346 10.5137 34.0361 10.6914C34.1377 10.8607 34.1546 11.0892 34.0869 11.377C34.0277 11.6647 33.9092 11.9906 33.7314 12.3545C33.5537 12.7184 33.3717 13.0951 33.1855 13.4844C32.7201 14.4915 32.4873 15.2109 32.4873 15.6426C32.4873 16.5312 32.7708 16.9756 33.3379 16.9756C33.9642 16.9756 34.6624 16.6921 35.4326 16.125C36.1182 15.6087 36.7191 14.9655 37.2354 14.1953C37.6162 14.1699 37.8066 14.3265 37.8066 14.665C37.8066 14.9359 37.6289 15.376 37.2734 15.9854C36.9264 16.5863 36.5837 17.1068 36.2451 17.5469C35.9066 17.987 35.5257 18.4229 35.1025 18.8545C34.6794 19.2777 34.2266 19.6543 33.7441 19.9844C32.6608 20.7376 31.6198 21.1143 30.6211 21.1143C29.6224 21.1143 28.9115 20.8604 28.4883 20.3525C28.0736 19.8363 27.8662 19.0999 27.8662 18.1436C27.8662 16.9163 28.6068 15.3802 30.0879 13.5352C30.5449 12.9681 30.7438 12.6846 30.6846 12.6846C30.0075 12.6846 28.9792 13.1077 27.5996 13.9541C26.1354 14.8512 25.1029 15.7314 24.502 16.5947C24.1549 17.9574 23.9476 19.2565 23.8799 20.4922C23.8799 20.8307 23.5117 21 22.7754 21ZM27.1045 9.79C28.1963 9.2907 29.1357 8.694 29.9229 8C30.71 7.2891 31.1035 6.6755 31.1035 6.1592C31.1035 5.90527 31.0527 5.67253 30.9512 5.46094C30.8581 5.24089 30.7311 5.13086 30.5703 5.13086C30.418 5.13086 30.2191 5.24512 29.9736 5.47363C29.7282 5.70215 29.4531 6.0195 29.1484 6.4258C28.5052 7.2721 27.8239 8.3936 27.1045 9.79ZM39.6982 21.0635L39.4443 21.0762C38.1071 21.0762 37.0872 20.7461 36.3848 20.0859C35.7246 19.4681 35.3945 18.6302 35.3945 17.5723C35.3945 16.1165 35.9743 14.7243 37.1338 13.3955C38.2594 12.109 39.6263 11.2077 41.2344 10.6914C41.1836 10.3105 41.3232 9.9974 41.6533 9.752C41.8903 9.57419 42.2796 9.4854 42.8213 9.4854C43.3714 9.4854 43.9004 9.5361 44.4082 9.6377C44.916 9.7393 45.4281 9.9635 45.9443 10.3105C47.0615 11.0469 47.6201 12.0371 47.6201 13.2812C47.6201 14.627 47.2858 15.9049 46.6172 17.1152C48.0729 16.8021 49.3467 15.8288 50.4385 14.1953C50.8193 14.1699 51.0098 14.3265 51.0098 14.665C51.0098 14.8005 50.9674 14.9655 50.8828 15.1602C49.7318 17.8939 47.4297 19.7051 43.9766 20.5938C42.7409 20.9154 41.3359 21.0762 39.7617 21.0762L39.6982 21.0635ZM39.4824 15.5029C39.4824 16.4847 39.8929 16.9756 40.7139 16.9756C41.4079 16.9756 42.1061 16.5566 42.8086 15.7188C43.5449 14.847 43.9131 13.9626 43.9131 13.0654C43.9131 12.1514 43.473 11.5462 42.5928 11.25C41.0778 11.6732 40.1087 12.6211 39.6855 14.0938C39.5501 14.5423 39.4824 15.012 39.4824 15.5029ZM54.4502 10.7676C55.5843 10.099 56.6888 9.7646 57.7637 9.7646C59.473 9.7646 60.548 10.4163 60.988 11.7197C61.124 12.1175 61.191 12.6126 61.191 13.2051C61.191 14.4915 60.717 15.8161 59.77 17.1787C60.565 17.0687 61.335 16.7555 62.08 16.2393C62.825 15.7145 63.472 15.0332 64.022 14.1953C64.403 14.1699 64.594 14.3265 64.594 14.665C64.594 14.8005 64.551 14.9655 64.467 15.1602C62.859 19.0618 58.953 21.0127 52.749 21.0127H52.7236C51.5811 21.0127 50.6374 20.6784 49.8926 20.0098C49.0801 19.2734 48.6738 18.2451 48.6738 16.9248C48.6738 15.2998 50.1549 12.363 53.1172 8.1143C54.3698 6.3031 55.4404 4.88965 56.3291 3.87402C56.5745 3.59473 56.9046 3.45508 57.3193 3.45508C57.7764 3.45508 58.111 3.62435 58.322 3.96289C56.5788 6.6966 55.2881 8.9648 54.4502 10.7676ZM53.1426 14.2842C53.0326 14.8174 52.9775 15.266 52.9775 15.6299C52.9775 15.9938 53.0876 16.3027 53.3076 16.5566C53.5277 16.8021 53.8112 16.9248 54.1582 16.9248C54.5137 16.9248 54.8734 16.8656 55.2373 16.7471C55.6012 16.6201 55.9567 16.4508 56.3037 16.2393C56.6507 16.0277 56.9808 15.7822 57.2939 15.5029C57.6071 15.2152 57.8822 14.9062 58.119 14.5762C58.627 13.8652 58.881 13.1924 58.881 12.5576C58.881 12.1514 58.779 11.8424 58.576 11.6309C58.238 11.2754 57.8568 11.0977 57.4336 11.0977C57.0189 11.0977 56.5957 11.1865 56.1641 11.3643C55.7324 11.5335 55.3262 11.7663 54.9453 12.0625C54.1243 12.6803 53.5234 13.4209 53.1426 14.2842ZM72.363 6.9971C72.016 7.1663 71.64 7.2975 71.233 7.3906C70.836 7.4753 70.489 7.5176 70.192 7.5176C69.896 7.5176 69.63 7.4837 69.393 7.416C69.156 7.3398 68.944 7.234 68.758 7.0986C68.352 6.8024 68.148 6.4469 68.148 6.0322C68.148 5.61751 68.22 5.26628 68.364 4.97852C68.517 4.69076 68.732 4.44531 69.012 4.24219C69.613 3.80208 70.332 3.58203 71.17 3.58203C72.016 3.58203 72.63 3.75553 73.011 4.10254C73.4 4.44954 73.595 4.84733 73.595 5.2959C73.595 5.74447 73.476 6.0957 73.239 6.3496C73.002 6.6035 72.71 6.8193 72.363 6.9971ZM62.588 19.5273C62.41 19.1465 62.321 18.681 62.321 18.1309C62.321 17.5723 62.44 16.984 62.677 16.3662C62.922 15.7484 63.231 15.1348 63.604 14.5254C63.984 13.9076 64.408 13.3151 64.873 12.748C65.339 12.1725 65.8 11.6647 66.257 11.2246C67.264 10.2682 68.005 9.79 68.479 9.79C68.682 9.79 68.906 9.87889 69.151 10.0566C69.405 10.2259 69.566 10.3529 69.634 10.4375C68.356 11.8086 67.548 13.1331 67.209 14.4111C67.099 14.8005 67.044 15.1813 67.044 15.5537C67.044 15.9176 67.184 16.2477 67.463 16.5439C67.742 16.8317 68.089 16.9756 68.504 16.9756C68.919 16.9756 69.304 16.8994 69.659 16.7471C70.023 16.5863 70.379 16.3789 70.726 16.125C71.411 15.6087 72.012 14.9655 72.528 14.1953C72.909 14.1699 73.1 14.3265 73.1 14.665C73.1 14.9443 72.922 15.3844 72.566 15.9854C72.219 16.5863 71.872 17.1068 71.525 17.5469C71.178 17.9785 70.781 18.4059 70.332 18.8291C69.892 19.2523 69.41 19.6289 68.885 19.959C67.708 20.7038 66.498 21.0762 65.254 21.0762C63.942 21.0762 63.053 20.5599 62.588 19.5273ZM78.406 18.9688C77.247 20.3229 75.833 21 74.166 21C73.108 21 72.262 20.6826 71.627 20.0479C71.001 19.4215 70.688 18.5964 70.688 17.5723C70.688 16.2773 71.195 15.0205 72.211 13.8018C73.193 12.6169 74.479 11.652 76.07 10.9072C77.721 10.137 79.426 9.752 81.187 9.752C81.855 9.752 82.333 9.8577 82.621 10.0693C82.85 9.7985 83.053 9.6419 83.23 9.5996C83.417 9.5488 83.561 9.5234 83.662 9.5234C83.984 9.5234 84.326 9.57 84.69 9.6631C84.657 9.7731 84.585 9.9635 84.475 10.2344C84.365 10.4967 84.242 10.8099 84.106 11.1738C83.971 11.5378 83.827 11.9355 83.675 12.3672C83.125 13.9076 82.85 15.0628 82.85 15.833C82.85 16.5947 83.091 16.9756 83.573 16.9756C84.2 16.9756 84.898 16.6921 85.668 16.125C86.354 15.6087 86.954 14.9655 87.471 14.1953C87.852 14.1699 88.042 14.3265 88.042 14.665C88.042 14.9528 87.864 15.3929 87.509 15.9854C87.162 16.5778 86.823 17.0898 86.493 17.5215C86.163 17.9531 85.795 18.3763 85.389 18.791C84.982 19.2057 84.551 19.5781 84.094 19.9082C83.07 20.6361 82.071 21 81.098 21C79.862 21 79.033 20.6276 78.609 19.8828C78.474 19.6543 78.406 19.4554 78.406 19.2861C78.406 19.1084 78.406 19.0026 78.406 18.9688ZM74.775 15.5029C74.775 16.4847 75.186 16.9756 76.007 16.9756C76.912 16.9756 77.979 16.2435 79.206 14.7793C79.858 14.0007 80.425 13.2559 80.907 12.5449C81.398 11.834 81.771 11.2923 82.024 10.9199C79.909 10.9368 78.152 11.4193 76.756 12.3672C75.436 13.2643 74.775 14.3096 74.775 15.5029Z" fill="black"/>
</svg>
