<svg width="25" height="30" viewBox="0 0 25 30" fill="none" xmlns="http://www.w3.org/2000/svg">
<g id="ph:framer-logo" clip-path="url(#clip0_2_21)">
<path id="Vector" d="M18.875 11.25V3.75C18.875 3.50136 18.7762 3.26291 18.6004 3.08709C18.4246 2.91127 18.1861 2.8125 17.9375 2.8125H1.0625C0.871893 2.81206 0.685675 2.86973 0.528678 2.97783C0.371681 3.08592 0.251364 3.23931 0.183766 3.41753C0.116169 3.59575 0.104503 3.79035 0.150325 3.97537C0.196147 4.16039 0.297279 4.32705 0.440238 4.45313L7.03907 10.3125H1.0625C0.813863 10.3125 0.575407 10.4113 0.399591 10.5871C0.223776 10.7629 0.125004 11.0014 0.125004 11.25V18.75C0.124907 18.8732 0.149074 18.9951 0.196126 19.1089C0.243177 19.2227 0.31219 19.3262 0.399223 19.4133L8.83672 27.8508C8.96784 27.982 9.13495 28.0715 9.3169 28.1077C9.49886 28.1439 9.68747 28.1254 9.85887 28.0543C10.0303 27.9833 10.1767 27.863 10.2797 27.7087C10.3827 27.5544 10.4377 27.373 10.4375 27.1875V19.6875H17.9375C18.1281 19.6879 18.3143 19.6303 18.4713 19.5222C18.6283 19.4141 18.7486 19.2607 18.8162 19.0825C18.8838 18.9043 18.8955 18.7097 18.8497 18.5246C18.8039 18.3396 18.7027 18.173 18.5598 18.0469L11.9609 12.1875H17.9375C18.1861 12.1875 18.4246 12.0887 18.6004 11.9129C18.7762 11.7371 18.875 11.4986 18.875 11.25ZM15.4766 17.8125H9.5C9.25136 17.8125 9.01291 17.9113 8.83709 18.0871C8.66128 18.2629 8.5625 18.5014 8.5625 18.75V24.9246L2 18.3621V12.1875H9.14844L15.4766 17.8125ZM17 10.3125H9.85157L3.52344 4.6875H17V10.3125Z" fill="black"/>
</g>
<defs>
<clipPath id="clip0_2_21">
<rect width="24" height="30" fill="white" transform="translate(0.5)"/>
</clipPath>
</defs>
</svg>
